<?xml version="1.0" encoding="utf-8"?>
<!-- Generator: Adobe Illustrator 26.0.0, SVG Export Plug-In . SVG Version: 6.00 Build 0)  -->
<svg version="1.1" id="圖層_1" xmlns="http://www.w3.org/2000/svg" xmlns:xlink="http://www.w3.org/1999/xlink" x="0px" y="0px"
	 viewBox="0 0 120 180" style="enable-background:new 0 0 120 180;" xml:space="preserve">
<style type="text/css">
	.st0{fill:none;stroke:#FFFFFF;stroke-width:4;}
	.st1{fill:none;stroke:#21A1A0;stroke-width:4;stroke-linecap:round;}
	.st2{fill:#FFFFFF;}
	.st3{fill:none;stroke:#FFD943;stroke-width:4;stroke-linecap:round;}
	.st4{fill:none;stroke:#FFFFFF;stroke-width:4;stroke-linecap:round;}
</style>
<g>
	<path class="st0" d="M4.2,34.8c0-7.4,6.1-13.6,13.6-13.6h84.4c7.4,0,13.6,6.1,13.6,13.6v120.6c0,1.8-1.5,3.2-3.2,3.2H7.5
		c-1.8,0-3.2-1.5-3.2-3.2V34.8z"/>
	<path class="st1" d="M100.9,47L100.9,47c0,4.5-3.7,8.1-8.1,8.1H29c-4.5,0-8.1-3.7-8.1-8.1l0,0"/>
	<path class="st2" d="M17.5,166.7c0,1.5,1.3,2.7,2.7,2.7s2.7-1.3,2.7-2.7H17.5z M17.5,157.3v9.4H23v-9.4H17.5z"/>
	<path class="st2" d="M97.5,166.7c0,1.5,1.3,2.7,2.7,2.7s2.7-1.3,2.7-2.7H97.5z M97.5,157.3v9.4h5.5v-9.4H97.5z"/>
	<line class="st3" x1="22" y1="108.1" x2="98.1" y2="108.1"/>
	<line class="st3" x1="22" y1="121.9" x2="98.1" y2="121.9"/>
	<line class="st3" x1="22" y1="135.5" x2="98.1" y2="135.5"/>
	<path class="st4" d="M46.4,38.8v4"/>
	<path class="st4" d="M60,38.8v4"/>
	<path class="st4" d="M73.7,38.8v4"/>
</g>
</svg>
