<?xml version="1.0" encoding="utf-8"?>
<!-- Generator: Adobe Illustrator 26.0.0, SVG Export Plug-In . SVG Version: 6.00 Build 0)  -->
<svg version="1.1" id="圖層_1" xmlns="http://www.w3.org/2000/svg" xmlns:xlink="http://www.w3.org/1999/xlink" x="0px" y="0px"
	 viewBox="0 0 120 180" style="enable-background:new 0 0 120 180;" xml:space="preserve">
<style type="text/css">
	.st0{fill:none;stroke:#FFFFFF;stroke-width:4.2802;stroke-linecap:round;}
	.st1{fill:none;stroke:#FFD943;stroke-width:4.2802;stroke-linecap:round;}
</style>
<g>
	<path class="st0" d="M116.1,73.7c0.3,14.5-5.1,28.6-15.1,39.3s-23.6,17-38.1,17.7s-28.7-4.1-39.7-13.6S5.4,94.1,4.1,79.6
		s3.2-28.9,12.3-40.2C25.6,28.1,38.7,20.8,53.2,19c11.9-1.5,23.9,1,34.2,6.7"/>
	<path class="st1" d="M48.7,42.2c4,1.2,12.2,7.9,13.6,25.4"/>
	<path class="st1" d="M74.9,111.8c-4-1.2-12.2-7.9-13.6-25.4"/>
	<path class="st1" d="M24.9,82.4c2.1-3.5,10.4-10.1,27.7-7.8"/>
	<path class="st1" d="M98.5,71.7c-2.1,3.5-10.4,10.1-27.7,7.8"/>
	<line class="st0" x1="67.7" y1="133.1" x2="67.7" y2="164.5"/>
	<path class="st0" d="M42.7,170.6L42.7,170.6c16.1-6,34-6,50.1,0l0,0"/>
</g>
</svg>
