<?xml version="1.0" encoding="utf-8"?>
<!-- Generator: Adobe Illustrator 26.0.0, SVG Export Plug-In . SVG Version: 6.00 Build 0)  -->
<svg version="1.1" id="圖層_1" xmlns="http://www.w3.org/2000/svg" xmlns:xlink="http://www.w3.org/1999/xlink" x="0px" y="0px"
	 viewBox="0 0 120 180" style="enable-background:new 0 0 120 180;" xml:space="preserve">
<style type="text/css">
	.st0{fill:#69C8BE;stroke:#FFFFFF;stroke-width:4;stroke-linecap:round;}
	.st1{fill:none;stroke:#FFFFFF;stroke-width:4;stroke-linecap:round;}
	.st2{fill:none;stroke:#FFD943;stroke-width:4;stroke-linecap:round;}
</style>
<g>
	<path class="st0" d="M3.8,54.5c0-1.8,1.5-3.4,3.4-3.4h105.6c1.8,0,3.4,1.5,3.4,3.4v34.5c0,7.8-6.3,14.1-14.1,14.1h-84
		c-7.8,0-14.1-6.3-14.1-14.1V54.5H3.8z"/>
	<path class="st1" d="M96.6,94.4L96.6,94.4c0-4.7-3.8-8.6-8.6-8.6H32c-4.7,0-8.6,3.8-8.6,8.6l0,0"/>
	<path class="st2" d="M32,112.5c-0.2,4.3-3.1,12.7-12.9,12.2"/>
	<path class="st2" d="M88,112.5c0.2,4.3,3.1,12.7,12.9,12.2"/>
	<line class="st2" x1="62" y1="113.6" x2="62" y2="128.9"/>
</g>
</svg>
