<?xml version="1.0" encoding="utf-8"?>
<!-- Generator: Adobe Illustrator 26.0.0, SVG Export Plug-In . SVG Version: 6.00 Build 0)  -->
<svg version="1.1" id="圖層_1" xmlns="http://www.w3.org/2000/svg" xmlns:xlink="http://www.w3.org/1999/xlink" x="0px" y="0px"
	 viewBox="0 0 120 180" style="enable-background:new 0 0 120 180;" xml:space="preserve">
<style type="text/css">
	.st0{fill:#69C8BE;}
	.st1{fill:#21A1A0;}
	.st2{fill:none;stroke:#FFFFFF;stroke-width:3.4563;}
	.st3{fill:none;stroke:#FFD943;stroke-width:3.4563;stroke-linecap:round;}
	.st4{fill:none;stroke:#FFFFFF;stroke-width:3.4563;stroke-linecap:round;}
	.st5{fill:none;stroke:#FFFFFF;stroke-width:2.5922;stroke-linecap:round;}
	.st6{fill:#FFFFFF;}
</style>
<g>
	<rect x="21.1" y="20.5" class="st0" width="86.2" height="148.2"/>
	<rect x="21.1" y="70.2" class="st1" width="86.2" height="98.5"/>
	<path class="st2" d="M24.1,20.5h81.2c1.7,0,3,1.3,3,3v142.1c0,1.7-1.3,3-3,3H24.1c-1.7,0-3-1.3-3-3V23.5
		C21.1,21.9,22.4,20.5,24.1,20.5z"/>
	<line class="st2" x1="21.1" y1="71.2" x2="109.3" y2="71.2"/>
	<line class="st3" x1="92.2" y1="47.9" x2="92.2" y2="55"/>
	<line class="st4" x1="92.2" y1="96.6" x2="92.2" y2="103.7"/>
	<path class="st5" d="M5.9,154.5L45.5,124"/>
	<path class="st5" d="M34.4,115.5l18.7-14.2"/>
	<path class="st6" d="M28.2,175.8c0,1.2,0.9,2.1,2.1,2.1s2.1-0.9,2.1-2.1H28.2z M28.2,167.6v8.1h4v-8.1H28.2z"/>
	<path class="st6" d="M97.2,175.8c0,1.2,0.9,2.1,2.1,2.1s2.1-0.9,2.1-2.1H97.2z M97.2,167.6v8.1h4v-8.1H97.2z"/>
</g>
</svg>
