<?xml version="1.0" encoding="utf-8"?>
<!-- Generator: Adobe Illustrator 26.0.0, SVG Export Plug-In . SVG Version: 6.00 Build 0)  -->
<svg version="1.1" id="圖層_1" xmlns="http://www.w3.org/2000/svg" xmlns:xlink="http://www.w3.org/1999/xlink" x="0px" y="0px"
	 viewBox="0 0 120 180" style="enable-background:new 0 0 120 180;" xml:space="preserve">
<style type="text/css">
	.st0{fill:none;stroke:#FFFFFF;stroke-width:4.1975;stroke-linecap:round;}
	.st1{fill:#21A1A0;stroke:#FFFFFF;stroke-width:4.1975;stroke-linecap:round;}
	.st2{fill:#FFFFFF;}
	.st3{fill:none;stroke:#FFD943;stroke-width:4.1975;stroke-linecap:round;}
	.st4{fill:#FFD943;}
</style>
<g>
	<path class="st0" d="M10,29.5h100.2c2.3,0,4.2,1.9,4.2,4.2V59c0,2.3-1.9,4.2-4.2,4.2H10c-2.3,0-4.2-1.9-4.2-4.2V33.6
		C5.7,31.3,7.6,29.5,10,29.5z"/>
	<rect x="11.3" y="63.2" class="st1" width="97.3" height="81.9"/>
	<path class="st2" d="M10,155c0,1.6,1.2,2.8,2.8,2.8s2.8-1.2,2.8-2.8H10z M10,147.9v7h5.6v-7H10z"/>
	<path class="st2" d="M105.8,155c0,1.6,1.2,2.8,2.8,2.8c1.6,0,2.8-1.2,2.8-2.8H105.8z M105.8,147.9v7h5.6v-7H105.8z"/>
	<path class="st0" d="M2.9,145.1h114.3"/>
	<line class="st0" x1="66.3" y1="47.7" x2="73.4" y2="47.7"/>
	<line class="st0" x1="84.7" y1="47.7" x2="91.7" y2="47.7"/>
	<line class="st0" x1="35.3" y1="84.2" x2="29.3" y2="88.1"/>
	<path class="st2" d="M26.9,94.3h12.6v10.6c0,3.5-2.8,6.3-6.3,6.3s-6.3-2.8-6.3-6.3C26.9,104.9,26.9,94.3,26.9,94.3z"/>
	<line class="st3" x1="62" y1="84.2" x2="56.2" y2="88.1"/>
	<path class="st4" d="M53.7,94.3h12.6v10.6c0,3.5-2.8,6.3-6.3,6.3s-6.3-2.8-6.3-6.3C53.7,104.9,53.7,94.3,53.7,94.3z"/>
	<line class="st0" x1="88.8" y1="84.2" x2="83" y2="88.1"/>
	<path class="st2" d="M80.4,94.3h12.6v10.6c0,3.5-2.8,6.3-6.3,6.3s-6.3-2.8-6.3-6.3V94.3z"/>
</g>
</svg>
