<?xml version="1.0" encoding="utf-8"?>
<!-- Generator: Adobe Illustrator 26.0.0, SVG Export Plug-In . SVG Version: 6.00 Build 0)  -->
<svg version="1.1" id="圖層_1" xmlns="http://www.w3.org/2000/svg" xmlns:xlink="http://www.w3.org/1999/xlink" x="0px" y="0px"
	 viewBox="0 0 120 180" style="enable-background:new 0 0 120 180;" xml:space="preserve">
<style type="text/css">
	.st0{fill:#FFFFFF;}
	.st1{fill:none;stroke:#FFFFFF;stroke-width:3.79;stroke-linecap:round;}
	.st2{fill:#FFD943;}
</style>
<g>
	<path class="st0" d="M4.7,81.1c-0.8,0.1-1.4,0.7-1.5,1.5c0,0.8,0.7,1.5,1.5,1.5V81.1z M13.6,81.1H4.7v3h8.9L13.6,81.1z"/>
	<path class="st0" d="M2.5,96.7c-0.8,0.1-1.4,0.7-1.5,1.5c0,0.8,0.7,1.5,1.5,1.5V96.7z M13.6,96.7H2.5v3h11.1V96.7z"/>
	<path class="st1" d="M54,91.1h21.3c7.7,0,13.9-6.2,13.9-13.9l0,0c0-7.7,6.2-13.9,13.9-13.9H121"/>
	<path class="st2" d="M25.5,80.4v36.3h15.9c8.8,0,15.9-7.1,16-15.9v-4.5c-0.1-8.8-7.2-15.9-16-15.9H25.5z"/>
	<path class="st1" d="M15.1,69.3v39.5c0,1.2,1,2.2,2.2,2.2h16c10,0,18.2-8.1,18.2-18.2v-0.1v-5.2c0.1-10-8.1-18.2-18.1-18.2h-0.1h-7
		"/>
</g>
</svg>
